<svg width="1200" height="900" viewBox="0 0 1200 900" fill="none" xmlns="http://www.w3.org/2000/svg">
  <defs>
    <linearGradient id="bg" x1="110" y1="80" x2="1070" y2="780" gradientUnits="userSpaceOnUse">
      <stop stop-color="#0F2135"/>
      <stop offset="1" stop-color="#132945"/>
    </linearGradient>
    <linearGradient id="glow" x1="320" y1="170" x2="900" y2="690" gradientUnits="userSpaceOnUse">
      <stop stop-color="#79F2C0" stop-opacity="0.9"/>
      <stop offset="1" stop-color="#72B8FF" stop-opacity="0.9"/>
    </linearGradient>
  </defs>
  <rect width="1200" height="900" rx="48" fill="url(#bg)"/>
  <circle cx="278" cy="205" r="142" fill="#79F2C0" fill-opacity="0.12"/>
  <circle cx="928" cy="698" r="178" fill="#72B8FF" fill-opacity="0.12"/>
  <rect x="112" y="118" width="976" height="664" rx="40" fill="#0A1522" stroke="#243A56" stroke-width="4"/>
  <rect x="172" y="188" width="344" height="454" rx="28" fill="#102034"/>
  <rect x="555" y="188" width="468" height="116" rx="24" fill="#102034"/>
  <rect x="555" y="332" width="468" height="116" rx="24" fill="#102034"/>
  <rect x="555" y="476" width="468" height="116" rx="24" fill="#102034"/>
  <rect x="555" y="620" width="322" height="60" rx="20" fill="url(#glow)"/>
  <path d="M238 338C238 281.667 283.667 236 340 236C396.333 236 442 281.667 442 338V434C442 490.333 396.333 536 340 536C283.667 536 238 490.333 238 434V338Z" fill="url(#glow)" fill-opacity="0.95"/>
  <path d="M299 324H381" stroke="#08111B" stroke-width="20" stroke-linecap="round"/>
  <path d="M287 384H393" stroke="#08111B" stroke-width="20" stroke-linecap="round"/>
  <path d="M312 444H368" stroke="#08111B" stroke-width="20" stroke-linecap="round"/>
  <rect x="596" y="225" width="214" height="18" rx="9" fill="#79F2C0"/>
  <rect x="596" y="363" width="288" height="18" rx="9" fill="#72B8FF"/>
  <rect x="596" y="507" width="260" height="18" rx="9" fill="#FFD780"/>
  <rect x="596" y="255" width="357" height="12" rx="6" fill="#446380"/>
  <rect x="596" y="393" width="362" height="12" rx="6" fill="#446380"/>
  <rect x="596" y="537" width="382" height="12" rx="6" fill="#446380"/>
</svg>
