<svg width="1200" height="630" viewBox="0 0 1200 630" fill="none" xmlns="http://www.w3.org/2000/svg">
  <defs>
    <linearGradient id="bg" x1="66" y1="48" x2="1114" y2="578" gradientUnits="userSpaceOnUse">
      <stop stop-color="#08111B"/>
      <stop offset="1" stop-color="#102034"/>
    </linearGradient>
    <linearGradient id="glow" x1="180" y1="90" x2="972" y2="470" gradientUnits="userSpaceOnUse">
      <stop stop-color="#79F2C0"/>
      <stop offset="1" stop-color="#72B8FF"/>
    </linearGradient>
  </defs>
  <rect width="1200" height="630" rx="36" fill="url(#bg)"/>
  <circle cx="169" cy="106" r="120" fill="#79F2C0" fill-opacity="0.12"/>
  <circle cx="1037" cy="568" r="170" fill="#72B8FF" fill-opacity="0.12"/>
  <rect x="88" y="86" width="82" height="82" rx="24" fill="url(#glow)"/>
  <path d="M116 113C116 103.059 124.059 95 134 95H144C153.941 95 162 103.059 162 113V122C162 132.493 153.493 141 143 141H135C124.507 141 116 132.493 116 122V113Z" fill="#0B1624"/>
  <path d="M108 126C108 120.477 112.477 116 118 116H160C165.523 116 170 120.477 170 126V129C170 134.523 165.523 139 160 139H118C112.477 139 108 134.523 108 129V126Z" fill="#102034"/>
  <text x="210" y="140" fill="#EAF3FF" font-size="52" font-family="Inter, Arial, sans-serif" font-weight="800">BetterHuman</text>
  <text x="90" y="290" fill="#EAF3FF" font-size="78" font-family="Inter, Arial, sans-serif" font-weight="800">Clarity for modern life.</text>
  <text x="90" y="360" fill="#A7B8D3" font-size="32" font-family="Inter, Arial, sans-serif" font-weight="500">Attention, habits, digital health, recovery, and better defaults.</text>
  <rect x="90" y="418" width="232" height="52" rx="26" fill="#79F2C0"/>
  <text x="135" y="452" fill="#08111B" font-size="24" font-family="Inter, Arial, sans-serif" font-weight="800">betterhuman</text>
</svg>