<svg width="800" height="520" viewBox="0 0 800 520" fill="none" xmlns="http://www.w3.org/2000/svg"><defs><linearGradient id="g" x1="184" y1="86" x2="606" y2="402" gradientUnits="userSpaceOnUse"><stop stop-color="#72B8FF"/><stop offset="1" stop-color="#FFD780"/></linearGradient></defs><rect width="800" height="520" rx="32" fill="#0D1726"/><circle cx="158" cy="126" r="92" fill="#72B8FF" fill-opacity="0.12"/><rect x="118" y="94" width="564" height="332" rx="28" fill="#102034" stroke="#20344C" stroke-width="4"/><path d="M400 156C451.915 156 494 198.085 494 250C494 301.915 451.915 344 400 344C348.085 344 306 301.915 306 250C306 198.085 348.085 156 400 156Z" fill="url(#g)"/><path d="M400 206C424.301 206 444 225.699 444 250C444 274.301 424.301 294 400 294C375.699 294 356 274.301 356 250C356 225.699 375.699 206 400 206Z" fill="#08111B"/><path d="M242 370C281.333 334.667 334 317 400 317C466 317 518.667 334.667 558 370" stroke="#17324D" stroke-width="18" stroke-linecap="round"/></svg>